<?xml version="1.0" encoding="UTF-8" standalone="no"?>
<!-- Created with Serif DrawPlus 12,0,4,27 (May 24, 08:37:51) (http://www.serif.com) -->
<svg version="1.1" xmlns="http://www.w3.org/2000/svg" xmlns:xlink="http://www.w3.org/1999/xlink" width="128" height="128">
	<g id="Layer_1">
		<path id="dp_path001" fill="none" fill-rule="evenodd" stroke="white" stroke-width="1.33333" d="M 64,26.5013 C 84.7093,26.5013 101.499,43.2907 101.499,64 C 101.499,84.7093 84.7093,101.499 64,101.499 C 43.2907,101.499 26.5013,84.7093 26.5013,64 C 26.5013,43.2907 43.2907,26.5013 64,26.5013 Z "/>
		<g id="dp_dp002" transform="matrix(1,0,0,1,33.107,69.8339)">
			<path id="dp_path003" fill="white" d="M 9.19333,-3.54267 L 9.208,-3.49733 C 9.228,-2.45867 8.86267,-1.58933 8.11333,-0.890667 C 7.36267,-0.190667 6.372,0.16 5.14,0.16 C 3.888,0.16 2.868,-0.284 2.08,-1.17067 C 1.29067,-2.05867 0.897333,-3.18267 0.897333,-4.54667 L 0.897333,-6.51733 C 0.897333,-7.88 1.29067,-9.00533 2.08,-9.896 C 2.868,-10.7867 3.888,-11.2307 5.14,-11.2307 C 6.392,-11.2307 7.388,-10.8973 8.128,-10.2307 C 8.868,-9.564 9.228,-8.68 9.208,-7.58133 L 9.19333,-7.536 L 7.756,-7.536 C 7.756,-8.31067 7.528,-8.924 7.07067,-9.376 C 6.616,-9.82533 5.972,-10.052 5.14,-10.052 C 4.30267,-10.052 3.63733,-9.71467 3.14,-9.04133 C 2.644,-8.36667 2.396,-7.53067 2.396,-6.53067 L 2.396,-4.54667 C 2.396,-3.53867 2.644,-2.696 3.14,-2.02267 C 3.63733,-1.348 4.30267,-1.01067 5.14,-1.01067 C 5.972,-1.01067 6.616,-1.236 7.07067,-1.684 C 7.528,-2.13333 7.756,-2.752 7.756,-3.54267 Z "/>
			<path id="dp_path004" fill="white" d="M 12.6307,-4.79733 L 12.6307,0 L 11.1333,0 L 11.1333,-11.0627 L 14.92,-11.0627 C 16.132,-11.0627 17.0573,-10.7933 17.696,-10.2573 C 18.3347,-9.72 18.6533,-8.94 18.6533,-7.916 C 18.6533,-7.348 18.5053,-6.85333 18.2093,-6.432 C 17.9133,-6.012 17.4813,-5.67733 16.912,-5.42933 C 17.5213,-5.23067 17.9587,-4.91067 18.224,-4.46667 C 18.4907,-4.024 18.624,-3.47467 18.624,-2.82133 L 18.624,-1.77867 C 18.624,-1.43333 18.6613,-1.12533 18.7387,-0.850667 C 18.8133,-0.577333 18.9453,-0.354667 19.132,-0.182667 L 19.132,0 L 17.5893,0 C 17.3907,-0.172 17.2653,-0.425333 17.2093,-0.76 C 17.1533,-1.09467 17.1253,-1.43867 17.1253,-1.79467 L 17.1253,-2.80533 C 17.1253,-3.404 16.9507,-3.88533 16.6013,-4.24933 C 16.2507,-4.616 15.7827,-4.79733 15.1947,-4.79733 Z M 12.6307,-5.976 L 14.768,-5.976 C 15.6147,-5.976 16.224,-6.13733 16.5973,-6.46 C 16.9693,-6.78133 17.156,-7.272 17.156,-7.93067 C 17.156,-8.55467 16.9747,-9.03733 16.612,-9.38 C 16.2507,-9.72133 15.6867,-9.892 14.92,-9.892 L 12.6307,-9.892 Z "/>
			<path id="dp_path005" fill="white" d="M 27.1027,-5.132 L 22.5547,-5.132 L 22.5547,-1.17067 L 27.8787,-1.17067 L 27.8787,0 L 21.0573,0 L 21.0573,-11.0707 L 27.7947,-11.0707 L 27.7947,-9.892 L 22.5547,-9.892 L 22.5547,-6.31067 L 27.1027,-6.31067 Z "/>
			<path id="dp_path006" fill="white" d="M 29.6533,0 L 29.6533,-11.0707 L 33.1373,-11.0707 C 34.5813,-11.0707 35.744,-10.6253 36.6227,-9.736 C 37.5027,-8.84667 37.9427,-7.69733 37.9427,-6.288 L 37.9427,-4.776 C 37.9427,-3.36133 37.5027,-2.21067 36.6227,-1.328 C 35.744,-0.442667 34.5813,0 33.1373,0 Z M 31.1507,-9.892 L 31.1507,-1.17067 L 33.1373,-1.17067 C 34.16,-1.17067 34.968,-1.508 35.5587,-2.18267 C 36.148,-2.856 36.444,-3.72 36.444,-4.776 L 36.444,-6.304 C 36.444,-7.348 36.148,-8.20667 35.5587,-8.88133 C 34.968,-9.55467 34.16,-9.892 33.1373,-9.892 Z "/>
			<path id="dp_path007" fill="white" d="M 41.8573,0 L 40.352,0 L 40.352,-11.0707 L 41.8573,-11.0707 Z "/>
			<path id="dp_path008" fill="white" d="M 52.3427,-9.892 L 48.692,-9.892 L 48.692,0 L 47.1947,0 L 47.1947,-9.892 L 43.5907,-9.892 L 43.5907,-11.0707 L 52.3427,-11.0707 Z "/>
			<path id="dp_path009" fill="white" d="M 59.804,-2.78933 C 59.804,-3.292 59.6227,-3.712 59.264,-4.052 C 58.904,-4.392 58.2693,-4.68133 57.3627,-4.92 C 56.2373,-5.19867 55.3587,-5.608 54.728,-6.15067 C 54.0973,-6.69333 53.7813,-7.376 53.7813,-8.196 C 53.7813,-9.06267 54.1213,-9.78533 54.8013,-10.3627 C 55.48,-10.9413 56.3627,-11.2307 57.4467,-11.2307 C 58.612,-11.2307 59.5413,-10.8987 60.2333,-10.2387 C 60.9253,-9.57733 61.2613,-8.80533 61.24,-7.92267 L 61.2187,-7.87733 L 59.788,-7.87733 C 59.788,-8.50667 59.5693,-9.02533 59.1307,-9.436 C 58.6933,-9.84667 58.1307,-10.052 57.4467,-10.052 C 56.748,-10.052 56.2107,-9.88133 55.8373,-9.54267 C 55.4653,-9.20267 55.28,-8.76133 55.28,-8.22 C 55.28,-7.73733 55.484,-7.336 55.8907,-7.01333 C 56.3,-6.692 56.9627,-6.41067 57.88,-6.16667 C 58.9947,-5.87733 59.844,-5.452 60.428,-4.88933 C 61.0107,-4.32667 61.3013,-3.632 61.3013,-2.80533 C 61.3013,-1.91467 60.9507,-1.196 60.2493,-0.654667 C 59.5467,-0.112 58.6307,0.16 57.5,0.16 C 56.4293,0.16 55.4867,-0.14 54.668,-0.737333 C 53.848,-1.33467 53.452,-2.13733 53.4773,-3.14 L 53.4933,-3.18533 L 54.9213,-3.18533 C 54.9213,-2.492 55.1853,-1.956 55.7133,-1.57733 C 56.24,-1.2 56.836,-1.01067 57.5,-1.01067 C 58.2107,-1.01067 58.7707,-1.17067 59.184,-1.49067 C 59.5973,-1.81067 59.804,-2.244 59.804,-2.78933 Z "/>
		</g>
	</g>
</svg>