<?xml version="1.0" encoding="UTF-8" standalone="no"?>
<!-- Created with Serif DrawPlus 12,0,4,27 (May 24, 08:37:51) (http://www.serif.com) -->
<svg version="1.1" xmlns="http://www.w3.org/2000/svg" xmlns:xlink="http://www.w3.org/1999/xlink" width="128" height="128">
	<g id="Layer_1">
		<g id="dp_group001">
			<path id="dp_path002" fill="none" fill-rule="evenodd" stroke="white" stroke-width="1.33333" d="M 64,26.5 C 84.7107,26.5 101.5,43.2893 101.5,64 C 101.5,84.7107 84.7107,101.5 64,101.5 C 43.2893,101.5 26.5,84.7107 26.5,64 C 26.5,43.2893 43.2893,26.5 64,26.5 Z "/>
			<path id="dp_path003" transform="matrix(1,0,0,1,48.6369,88.2547)" fill="white" d="M 11.2213,-12.9573 C 11.2427,-16.016 11.5067,-18.1307 12.0133,-19.312 C 12.516,-20.4933 13.8427,-22.0533 15.9947,-23.9893 C 18.0827,-26.4547 19.5667,-28.3533 20.4507,-29.6813 C 21.336,-31.008 21.7773,-32.6107 21.7773,-34.488 C 21.7773,-36.7213 21.184,-38.436 19.992,-39.6387 C 18.8,-40.8373 17.1013,-41.4413 14.8893,-41.4413 C 12.968,-41.4413 11.34,-40.9173 9.99067,-39.876 C 8.64267,-38.8307 7.968,-37.2973 7.968,-35.2747 L 2.02267,-35.2747 L 1.93067,-35.464 C 1.86667,-38.8573 3.05867,-41.576 5.51867,-43.62 C 7.97333,-45.6653 11.096,-46.684 14.8893,-46.684 C 19.0373,-46.684 22.2627,-45.6267 24.5613,-43.5067 C 26.86,-41.392 28.0027,-38.436 28.0027,-34.644 C 28.0027,-31.9253 27.264,-29.4387 25.7747,-27.1827 C 24.292,-24.928 22.328,-22.62 19.884,-20.2613 C 18.7467,-19.124 18.056,-18.104 17.8133,-17.1973 C 17.5707,-16.292 17.4453,-14.8787 17.4453,-12.9573 Z M 17.6667,0 L 11.156,0 L 11.156,-6.576 L 17.6667,-6.576 Z "/>
		</g>
	</g>
</svg>