<?xml version="1.0" encoding="UTF-8" standalone="no"?>
<!-- Created with Serif DrawPlus 12,0,4,27 (May 24, 08:37:51) (http://www.serif.com) -->
<svg version="1.1" xmlns="http://www.w3.org/2000/svg" xmlns:xlink="http://www.w3.org/1999/xlink" width="960" height="250">
	<g id="Layer_1">
		<g id="dp_group001">
			<path id="dp_path002" fill="white" fill-rule="evenodd" d="M 850.488,122.747 L 851.516,120.569 L 822.371,120.569 C 806.34,120.569 792.579,120.796 791.789,121.073 C 788.531,122.217 784.884,123.751 782.672,126.405 C 778.229,131.735 778.813,138.095 780.459,144.369 C 781.927,146.048 783.46,147.665 784.975,149.3 C 793.269,154.115 802.88,155.816 812.088,158.117 C 819.884,160.067 827.58,162.2 835.129,164.945 C 836.267,165.259 837.404,165.573 838.543,165.887 C 840.011,167.355 841.492,168.789 843.049,170.161 C 847.505,174.081 848.405,180.471 848.843,186.021 L 848.575,187.004 C 848.379,187.724 839.333,187.987 814.751,187.987 L 781.196,187.987 C 780.4,189.664 779.603,191.341 778.805,193.017 C 778.207,194.469 777.608,195.921 777.011,197.373 L 782.295,197.373 C 786.487,197.373 787.979,197.001 789.515,195.576 C 791.764,193.487 794.272,194.253 796.527,195.94 C 797.355,196.56 800.427,197.136 803.353,197.22 C 811.113,197.444 818.875,197.373 826.637,197.373 C 826.281,194.467 824.193,191.889 822.709,189.428 C 823.721,189.801 824.731,190.173 825.741,190.547 C 828.161,192.823 830.58,195.097 832.999,197.373 C 841.644,197.373 850.289,197.373 858.935,197.373 L 858.935,189.223 C 858.935,182.669 858.156,176.033 855.145,170.121 C 852.724,165.365 848.003,161.363 843.459,158.723 C 840.307,156.891 837.009,154.98 833.377,154.323 C 831.579,153.996 829.907,153.567 828.169,152.997 C 826.625,152.492 825.099,152.031 823.523,151.644 C 822.4,151.369 820.879,151.583 820.141,152.119 C 818.752,153.129 816.573,153.313 816.2,151.203 C 816.008,150.113 814.515,149.472 810.511,148.757 C 804.064,147.607 798.317,144.491 792.371,141.904 C 788.468,138.893 787.968,132.269 793.113,130.037 C 794.511,129.431 804.041,129.103 820.273,129.103 L 845.281,129.103 C 846.695,129.603 847.38,128.5 848.095,127.269 C 848.96,125.784 849.753,124.301 850.488,122.747 Z "/>
			<path id="dp_path003" fill="white" fill-rule="evenodd" d="M 443.852,151.38 C 433.573,140.689 423.103,130.203 412.615,119.716 L 412.615,156.883 C 412.615,179.983 412.292,194.677 411.761,195.711 L 410.908,197.373 C 414.473,197.373 418.041,197.373 421.607,197.373 C 420.923,179.416 421.148,161.449 421.148,143.48 C 425.285,145.747 428.365,149.767 431.711,153.041 C 439.685,160.843 440.693,161.565 442.883,161.035 C 445.18,160.48 445.313,160.616 445.824,164.033 C 446.249,166.873 447.379,168.668 451.293,172.724 C 459.679,181.411 468.163,190 476.619,198.617 C 476.619,172.601 476.619,146.585 476.619,120.569 L 471.539,120.569 C 466.629,120.569 466.487,120.632 467.271,122.443 C 467.725,123.488 468.085,135.22 468.085,148.947 C 468.085,168.387 467.852,173.659 466.976,173.961 C 466.365,174.173 463.313,171.675 460.192,168.409 C 457.073,165.145 449.72,157.481 443.852,151.38 Z "/>
			<path id="dp_path004" fill="white" fill-rule="evenodd" d="M 737.353,120.692 C 723.835,120.467 710.312,120.569 696.792,120.569 C 697.076,122.875 697.361,125.18 697.645,127.485 C 697.645,150.639 697.645,173.793 697.645,196.947 C 699.208,196.947 699.504,196.044 700.053,194.647 C 700.813,192.712 702.225,193.408 703.708,193.96 C 705.127,195.204 706.545,196.448 707.964,197.691 C 707.939,176.221 707.912,154.751 707.885,133.281 C 707.885,131.888 707.885,130.496 707.885,129.103 L 724.571,129.103 C 738.012,129.103 741.768,129.363 743.88,130.436 C 748.369,132.719 748.221,137.635 746.511,141.576 C 744.601,143.092 742.693,144.608 740.785,146.127 C 737.243,148.945 733.607,151.651 729.985,154.367 C 728.359,155.587 726.773,156.849 725.187,158.117 C 727.983,158.117 730.779,158.117 733.576,158.117 L 736.989,158.971 C 741.996,160.223 747.297,162.641 750.789,166.577 C 756.233,172.716 759.149,179.017 760.153,187.324 C 760.812,192.773 760.779,194.944 760.021,195.984 L 759.012,197.373 C 762.736,197.373 766.459,197.373 770.183,197.373 L 770.183,191.783 C 770.183,184.387 768.259,177.425 765.063,170.829 C 764.748,169.692 764.435,168.555 764.12,167.416 C 758.269,160.5 751.641,154.516 742.708,152.105 C 740.575,151.531 739.428,151.008 740.147,148.929 C 742.189,147.503 744.199,146.04 746.2,144.552 C 747.675,143.553 749.129,142.547 750.555,141.477 C 751.981,140.407 753.436,139.4 754.911,138.401 C 756.18,137.435 757.447,136.469 758.716,135.503 C 758.719,135.503 758.721,135.503 758.724,135.503 L 757.771,132.875 C 756.696,129.913 755.043,127.735 752.927,125.365 C 749.279,121.28 742.425,120.777 737.353,120.692 Z "/>
			<path id="dp_path005" fill="white" fill-rule="evenodd" d="M 335.811,120.783 L 335.811,120.569 C 332.112,120.569 328.415,120.569 324.716,120.569 C 326.117,131.925 325.569,143.357 325.569,154.793 C 325.569,175.835 325.839,182.843 326.743,185.327 L 327.917,188.551 L 329.259,189.931 C 330.548,191.256 331.853,192.564 333.161,193.871 C 337.373,195.524 341.621,196.848 345.961,198.139 C 347.468,198.245 348.721,198.193 349.313,196.484 C 349.801,195.073 350.48,194.78 351.755,195.128 L 352.529,196.677 C 353.185,197.988 354.397,198.227 360.389,198.227 C 370.789,198.227 380.716,196.244 387.843,188.227 C 390.163,182.88 390.163,177.208 390.251,171.411 L 390.427,159.736 L 390.427,157.317 C 390.427,154.609 388.876,153.228 387.339,151.221 C 385.557,148.896 386.633,147.556 388.436,145.963 C 389.725,144.823 390.136,143.232 390.263,138.887 C 390.441,132.779 390.427,126.679 390.427,120.569 C 388.685,120.569 387.277,120.827 385.899,122.048 C 384.311,123.451 384.188,123.451 383.485,122.048 C 383.08,121.235 382.073,120.569 381.248,120.569 C 380.031,120.569 379.791,121.215 379.968,124.027 C 380.595,133.961 380.187,143.989 380.187,153.94 C 380.187,168.491 379.849,181.264 379.436,182.327 C 378.145,185.652 375.005,187.344 371.544,188.207 C 364.22,190.033 355.464,189.959 348.045,188.879 C 345.131,188.455 342.341,187.983 339.988,186.191 L 338.063,184.543 C 336.471,183.177 336.111,181.929 335.973,177.288 C 335.423,158.473 335.811,139.607 335.811,120.783 Z "/>
			<path id="dp_path006" fill="white" fill-rule="evenodd" d="M 946.375,123.173 L 947.623,120.569 C 931.713,120.569 915.805,120.569 899.897,120.569 C 895.629,121.665 891.497,123.171 887.435,124.88 C 883.524,126.527 880.455,130.392 877.772,133.628 C 875.104,136.845 872.724,140.907 871.353,144.891 C 868.235,153.953 867.811,165.719 872.163,174.421 C 873.153,176.403 873.797,178.269 874.384,180.395 C 877.429,184 880.777,187.337 884.581,190.164 C 891.141,195.041 898.591,195.899 906.724,196.52 C 912.876,196.989 923.395,197.373 930.101,197.373 C 941.149,197.373 942.425,197.217 943.667,195.711 C 945.528,193.453 946.137,190.751 947.06,187.987 L 925.14,187.987 C 913.085,187.987 901.687,187.601 899.809,187.133 C 896.755,186.369 894.059,185.156 891.319,183.675 C 887.54,181.633 884.364,177.62 882.544,173.808 C 879.239,166.88 878.408,157.792 880.269,150.349 C 881.12,146.949 882.223,143.823 884.036,140.816 C 886.008,137.547 889.368,135.076 892.381,132.772 C 893.363,132.023 895.627,131.083 897.413,130.683 C 899.2,130.283 906.079,129.764 912.699,129.529 C 922.377,129.185 932.028,129.103 941.713,129.103 C 942.023,129.245 942.332,129.387 942.641,129.529 C 944.004,127.473 945.307,125.404 946.375,123.173 Z "/>
			<path id="dp_path007" fill="white" fill-rule="evenodd" d="M 680.311,123.581 L 681.708,120.569 C 665.969,120.569 650.232,120.569 634.495,120.569 L 632.832,120.996 C 631.403,121.363 629.975,121.635 628.521,121.893 C 621.347,123.171 617.081,128.596 612.219,133.459 C 611.451,134.453 610.684,135.448 609.917,136.441 C 608.969,137.631 609.117,138.941 609.391,140.429 C 609.908,143.241 609.139,143.915 606.921,145.023 C 604.687,146.14 604.315,150.06 603.773,152.233 C 603.076,159.209 602.669,167.092 605.907,173.568 C 606.617,174.989 607.236,176.307 607.657,177.835 C 608.347,180.332 610.403,181.816 612.219,183.631 L 612.689,184.955 C 613.489,187.203 616.423,188.416 618.369,189.781 C 620.296,191.26 622.253,192.577 624.469,193.605 C 633.399,197.749 644.039,197.067 653.663,197.576 C 655.292,197.132 656.108,196.371 656.44,194.563 C 657.089,191.036 659.245,193.796 660.849,195.24 C 662.941,197.123 663.988,197.373 669.727,197.373 C 674.083,197.373 676.5,197.007 677.04,196.264 C 678.852,193.773 680.055,190.736 681.431,187.987 L 659.625,187.987 C 647.632,187.987 636.284,187.601 634.407,187.133 C 630.979,186.276 627.843,185.153 624.807,183.333 C 622.161,181.748 620.488,179.28 618.621,176.843 C 614.632,171.64 614.013,164.772 614.013,158.456 C 614.013,151.493 616.287,145.893 618.957,139.696 C 620.124,138.471 621.291,137.245 622.459,136.019 C 624.248,134.229 626.691,132.86 628.763,131.409 C 638.732,129.179 649.16,129.464 659.332,129.103 C 664.992,129.103 670.651,129.103 676.311,129.103 C 676.465,129.245 676.621,129.387 676.776,129.529 C 678.145,127.645 679.325,125.703 680.311,123.581 Z "/>
			<path id="dp_path008" fill="white" fill-rule="evenodd" d="M 248.371,121.423 C 247.735,120.953 242.571,120.569 236.895,120.569 L 226.577,120.569 C 223.049,121.475 219.649,122.672 216.209,123.864 C 214.859,125.012 213.509,126.159 212.159,127.307 C 211.56,127.367 210.961,127.425 210.363,127.485 L 207.332,130.899 C 205.403,133.069 203.553,135.285 201.788,137.587 C 200.905,140.232 200.021,142.869 198.695,145.336 C 197.96,146.707 197.02,150.739 196.607,154.297 C 195.845,160.853 196.244,168.047 198.415,174.332 C 199.127,176.391 199.899,177.472 201.364,179.025 C 200.757,178.16 202.451,178.287 203.172,178.124 C 205.577,177.581 205.721,179.404 206.184,181.248 L 207.403,184.9 C 208.995,189.672 212.888,192.469 217.483,193.995 C 226.415,196.956 235.691,196.901 245.072,197.067 L 262.508,197.373 L 265.877,197.373 C 268.953,197.373 269.395,197.077 270.953,193.96 L 272.66,190.547 L 273.513,189.267 L 274.367,187.987 L 252.561,187.987 C 240.568,187.987 229.027,187.601 226.915,187.133 C 224.033,186.492 221.515,185.623 218.808,184.484 C 217.172,182.848 215.497,181.288 213.732,179.791 C 209.157,175.911 207.608,169.024 206.889,163.388 C 205.935,155.907 206.732,146.555 211.511,140.309 C 213.232,138.057 215.276,136.137 217.279,134.135 C 223.319,129.433 231.653,129.78 238.951,129.529 C 248.773,129.193 258.567,129.103 268.393,129.103 C 268.875,129.544 269.401,129.175 269.907,128.844 C 272.333,127.259 273.419,123.232 274.567,120.569 L 265.888,120.569 C 260.095,120.569 256.176,120.997 254.099,121.857 C 252.389,122.565 250.66,122.949 250.259,122.711 C 249.599,122.317 248.991,121.879 248.371,121.423 Z "/>
			<path id="dp_path009" fill="white" fill-rule="evenodd" d="M 531.492,122.008 L 531.989,120.569 C 527.471,120.569 522.953,120.569 518.435,120.569 C 531.532,146.765 545.252,172.664 558.757,198.653 C 564.319,187.529 569.885,176.413 575.611,165.372 C 580.576,155.799 585.704,146.329 590.884,136.872 C 593.597,131.437 596.311,126.004 599.025,120.569 L 592.864,120.569 C 587.221,120.569 586.705,120.716 586.705,122.32 C 586.705,125.228 585.168,128.656 583.464,130.999 C 582.995,131.645 579.883,137.628 576.549,144.293 C 572.793,151.805 568.993,159.288 565.115,166.737 C 562.157,172.416 559.337,176.953 558.848,176.82 C 558.36,176.688 555.807,172.444 553.176,167.392 C 548.588,158.583 544.139,149.709 539.693,140.827 C 534.409,130.271 531.189,122.883 531.492,122.008 Z "/>
			<path id="dp_path010" fill="white" fill-rule="evenodd" d="M 132.045,122.619 C 131.687,120.66 131.371,120.569 124.933,120.569 L 118.197,120.569 C 119.869,122.819 121.547,125.064 123.228,127.307 C 125.663,130.499 128.264,133.539 130.899,136.565 C 132.428,136.835 133.935,136.783 135.492,136.783 C 138.767,136.783 138.827,136.837 137.911,138.961 C 137.379,140.195 136.897,141.393 136.521,142.681 C 135.86,144.944 138.385,146.849 139.62,148.393 C 140.859,149.939 142.111,151.472 143.372,152.997 C 144.496,154.356 145.84,156.084 146.359,156.837 C 146.877,157.591 148.049,159.109 148.963,160.211 C 150.491,162.052 150.625,163.624 150.625,179.58 C 150.625,185.44 150.625,191.3 150.625,197.16 C 150.625,197.623 152.723,197.373 153.185,197.373 C 155.219,197.373 155.745,197.004 155.745,195.581 C 155.745,192.995 159.368,194.511 160.867,195.325 L 160.867,178.101 C 160.867,167.247 161.199,160.507 161.764,159.879 C 164.204,157.171 166.363,154.205 168.547,151.291 C 169.637,149.681 170.752,148.124 171.96,146.597 C 172.835,145.492 173.685,144.393 174.476,143.228 C 178.689,137.012 183.517,131.149 188.175,125.263 C 189.395,123.721 190.569,122.155 191.731,120.569 L 184.833,120.569 C 178.937,120.569 177.933,120.779 177.933,122.004 C 177.933,124.033 175.843,125.872 174.609,127.307 C 174.551,127.936 174.491,128.564 174.432,129.192 C 173.068,130.555 171.705,131.917 170.343,133.281 C 170.173,135.065 169.684,135.757 168.503,137.209 C 167.417,138.545 166.705,139.619 166.115,141.229 C 165.716,142.315 164.769,143.535 164.011,143.941 C 161.799,145.128 159.624,147.587 158.777,149.967 C 158.348,151.173 157.201,154.191 155.449,153.584 C 153.191,152.801 151.617,149.767 150.199,147.877 C 148.704,145.884 147.147,143.943 145.595,141.992 C 143.951,139.605 142.189,137.345 140.385,135.076 C 139.105,133.369 137.825,131.663 136.545,129.956 C 135.661,128.777 134.76,127.613 133.844,126.459 C 132.783,125.123 132.355,124.292 132.045,122.619 Z "/>
			<path id="dp_path011" fill="white" fill-rule="evenodd" d="M 25.0387,120.783 L 25.1787,120.569 C 20.9107,120.569 16.644,120.569 12.3773,120.569 L 12.7067,121.712 C 13.2507,123.593 15.1,125.184 16.3067,126.632 C 18.4133,129.16 20.5147,131.692 22.6173,134.223 C 24.148,136.247 25.6933,138.243 27.312,140.197 C 28.436,141.556 29.78,143.284 30.2987,144.037 C 30.8173,144.791 32.1613,146.519 33.2853,147.877 C 34.4093,149.236 35.7533,150.964 36.272,151.717 C 37.596,153.641 39.0853,155.437 40.5387,157.264 C 41.52,158.712 42.5053,160.136 43.5707,161.523 C 44.5493,162.797 44.8053,166.501 44.8053,179.339 C 44.8053,192.008 44.552,195.744 43.6413,196.459 L 42.4787,197.373 C 46.892,197.373 51.3053,197.373 55.7187,197.373 C 53.8987,191.157 54.1933,184.515 54.1933,178.084 C 54.1933,170.151 54.5853,163.071 55.0907,161.869 C 56.8093,157.788 60.304,154.055 62.816,150.349 C 64.2547,148.475 65.2867,146.711 65.2867,144.225 C 65.2867,141.519 66.7013,140.155 68.612,138.579 C 73.4347,137.195 76.048,132.928 78.9413,129.103 C 81.028,126.344 83.1933,123.669 85.4027,121.007 C 80.792,120.192 76.0333,120.569 71.36,120.569 C 72.3693,123.487 69.568,124.971 68.3187,127.352 C 67.8347,128.275 67.2347,129.075 66.612,129.912 C 65.768,131.047 65.328,132.085 65.1987,133.459 C 63.8347,134.821 62.472,136.185 61.1093,137.548 L 60.688,138.772 C 60.1067,140.463 58.696,141.807 57.6067,143.184 C 56.7173,144.308 55.756,145.652 55.4733,146.171 C 54.1947,148.507 52.2173,150.659 50.432,152.615 C 48.5827,154.644 47.624,152.276 46.424,150.776 C 44.744,148.673 43.0667,146.569 41.392,144.464 C 39.4693,141.9 37.5027,139.38 35.508,136.872 C 33.864,134.485 32.1027,132.225 30.2987,129.956 C 29.3,128.481 28.2907,127.032 27.208,125.617 C 26.1213,124.199 25.4747,122.66 24.8987,120.996 Z "/>
			<path id="dp_path012" fill="white" fill-rule="evenodd" d="M 507.596,121.423 L 507.852,120.569 C 503.984,120.569 500.115,120.569 496.247,120.569 C 497.948,134.353 497.1,148.344 497.1,162.216 C 497.1,173.935 497.1,185.655 497.1,197.373 C 501.108,197.373 505.116,197.373 509.124,197.373 C 506.74,194.095 507.34,189.191 507.34,185.325 C 507.34,177.045 507.113,175.463 505.679,173.795 C 504.295,172.185 503.945,171.656 503.595,170.636 C 503.233,169.585 503.056,169.32 502.336,168.755 C 501.876,168.392 501.737,167.617 502.031,167.033 C 502.859,165.375 506.193,167.785 507.34,168.359 C 507.34,152.997 507.34,137.637 507.34,122.276 Z "/>
			<path id="dp_path013" fill="white" fill-rule="evenodd" d="M 106.505,121.423 L 106.761,120.569 C 103.177,120.569 99.5933,120.569 96.0093,120.569 C 97.02,134.823 96.8627,149.029 96.8627,163.327 C 96.8627,182.131 96.5307,194.693 96.0093,195.711 L 95.156,197.373 C 99.4493,197.373 103.741,197.373 108.033,197.373 L 107.141,196.147 C 106.555,195.339 106.249,182.515 106.249,158.599 L 106.249,122.276 Z "/>
			<path id="dp_path014" fill="white" fill-rule="evenodd" d="M 267.168,150.908 L 267.74,149.584 C 250.32,149.584 232.903,149.584 215.483,149.584 C 214.629,151.605 213.776,153.625 212.923,155.647 C 212.595,156.755 212.267,157.863 211.939,158.971 L 236.015,158.971 C 249.913,158.971 260.528,159.313 261.123,159.781 C 261.861,160.361 262.783,159.407 264.375,156.412 L 266.597,152.233 Z "/>
			<path id="dp_path015" fill="white" fill-rule="evenodd" d="M 672.533,154.533 L 674.932,149.584 L 648.74,149.584 C 623.032,149.584 622.54,149.617 622.121,151.335 C 621.461,154.037 620.072,156.468 618.872,158.971 C 635.457,158.971 652.044,158.971 668.631,158.971 C 670.667,159.665 671.823,155.997 672.533,154.533 Z "/>
			<path id="dp_path016" fill="white" fill-rule="evenodd" d="M 939.068,153.168 L 940.86,149.584 C 923.508,149.584 906.156,149.584 888.804,149.584 C 887.951,151.32 887.096,153.057 886.243,154.793 C 885.675,156.185 885.105,157.579 884.536,158.971 C 901.035,158.971 917.535,158.971 934.033,158.971 L 934.661,159.227 L 935.291,159.483 C 936.743,157.485 937.96,155.384 939.068,153.168 Z "/>
			<path id="dp_path017" fill="white" fill-rule="evenodd" d="M 470.645,61.6853 C 470.645,52.0133 470.551,51.4453 468.939,51.4453 C 467.275,51.4453 467.232,52.0133 467.232,73.6333 C 467.232,95.252 467.275,95.8213 468.939,95.8213 C 470.553,95.8213 470.645,95.252 470.645,85.1533 L 470.645,74.4867 C 478.895,74.4867 487.144,74.4867 495.393,74.4867 C 495.393,81.6307 495.393,88.776 495.393,95.9213 L 496.673,95.696 C 497.772,95.5013 497.953,92.3493 497.953,73.4067 L 497.953,51.3453 L 496.673,51.5707 C 495.62,51.756 495.393,53.584 495.393,61.8613 L 495.393,71.9267 C 487.144,71.9267 478.895,71.9267 470.645,71.9267 Z "/>
			<path id="dp_path018" fill="white" fill-rule="evenodd" d="M 531.111,52.7253 C 530.924,51.672 529.096,51.4453 520.82,51.4453 L 510.753,51.4453 C 510.753,66.2373 510.753,81.0293 510.753,95.8213 C 517.899,95.8213 525.044,95.8213 532.189,95.8213 L 531.964,94.5413 C 531.779,93.4987 530.069,93.2613 522.744,93.2613 L 513.749,93.2613 C 513.364,87.1453 513.315,81.0747 513.315,74.9453 C 517.327,74.792 521.339,74.6387 525.351,74.4867 L 527.905,74.4867 C 529.309,74.4867 530.355,74.1013 530.227,73.6333 C 530.093,73.14 526.563,72.78 521.872,72.78 L 513.749,72.78 C 513.364,66.6573 513.315,60.5773 513.315,54.4413 L 516.772,54.224 C 519.781,54.0333 522.768,54.0053 525.783,54.0053 C 530.249,54.0053 531.291,53.7547 531.111,52.7253 Z "/>
			<path id="dp_path019" fill="white" fill-rule="evenodd" d="M 458.572,52.7253 C 458.383,51.648 456.132,51.4453 444.441,51.4453 L 430.536,51.4453 L 430.711,52.7253 C 430.849,53.7293 432.225,54.0053 437.112,54.0053 L 443.336,54.0053 C 443.336,67.976 443.336,81.9493 443.336,95.9213 L 444.617,95.696 C 445.713,95.5027 445.897,92.496 445.897,74.7373 L 445.897,54.0053 L 452.347,54.0053 C 457.613,54.0053 458.757,53.7693 458.572,52.7253 Z "/>
		</g>
	</g>
</svg>