<?xml version="1.0" encoding="UTF-8" standalone="no"?>
<!-- Created with Serif DrawPlus 12,0,4,27 (May 24, 08:37:51) (http://www.serif.com) -->
<svg version="1.1" xmlns="http://www.w3.org/2000/svg" xmlns:xlink="http://www.w3.org/1999/xlink" width="256" height="64">
	<g id="Layer_2">
		<g id="dp_group001">
			<path id="dp_path002" fill="#ca1010" fill-rule="evenodd" stroke="none" stroke-width="1.33333" d="M 146.76,31.9533 L 143.616,30.2507 L 140.472,28.548 L 137.328,26.8453 L 134.719,25.4307 L 132.108,24.0173 L 129.499,22.6027 L 126.888,21.1867 L 124.277,19.772 L 121.665,18.3573 L 119.055,16.9427 L 119.055,19.9453 L 119.055,22.9493 L 119.055,25.9507 L 119.055,28.952 L 119.055,31.9533 L 119.055,34.956 L 119.055,37.9573 L 119.055,40.9587 L 119.055,43.9613 L 119.055,46.9653 L 121.573,45.6 L 124.093,44.2347 L 126.612,42.8707 L 129.131,41.5053 L 131.649,40.14 L 134.167,38.776 L 136.684,37.4107 L 139.203,36.0467 L 141.721,34.6827 L 144.24,33.3173 Z "/>
			<path id="dp_path003" fill="#b7b7b7" fill-rule="evenodd" stroke="none" stroke-width="1.33333" d="M 128,62.2653 C 144.568,62.2653 157.999,48.8347 157.999,32.2667 C 157.999,15.6987 144.568,2.268 128,2.268 C 111.432,2.268 98.0013,15.6987 98.0013,32.2667 C 98.0013,48.8347 111.432,62.2653 128,62.2653 Z "/>
			<path id="dp_path004" fill="white" fill-rule="evenodd" stroke="none" stroke-width="1.33333" d="M 146.76,31.9533 L 143.616,30.2507 L 140.471,28.548 L 137.328,26.8453 L 134.719,25.4307 L 132.108,24.0173 L 129.499,22.6027 L 126.887,21.1867 L 124.277,19.772 L 121.665,18.3573 L 119.055,16.9427 L 119.055,19.9453 L 119.055,22.9493 L 119.055,25.9507 L 119.055,28.952 L 119.055,31.9533 L 119.055,34.956 L 119.055,37.9573 L 119.055,40.9587 L 119.055,43.9613 L 119.055,46.9653 L 121.573,45.6 L 124.092,44.2347 L 126.612,42.8707 L 129.131,41.5053 L 131.648,40.14 L 134.167,38.776 L 136.684,37.4107 L 139.203,36.0467 L 141.721,34.6827 L 144.24,33.3173 Z "/>
			<path id="dp_path005" fill="#a4a4a4" fill-rule="evenodd" stroke="none" stroke-width="1.33333" d="M 146.76,31.9533 L 119.053,46.9653 L 136.031,60.9093 C 144.323,58.728 150.228,53.708 154.24,46.4307 Z "/>
		</g>
	</g>
</svg>