<?xml version="1.0" encoding="UTF-8" standalone="no"?>
<!-- Created with Serif DrawPlus 12,0,4,27 (May 24, 08:37:51) (http://www.serif.com) -->
<svg version="1.1" xmlns="http://www.w3.org/2000/svg" xmlns:xlink="http://www.w3.org/1999/xlink" width="128" height="128">
	<g id="Layer_1">
		<g id="dp_group001">
			<path id="dp_path002" fill="none" fill-rule="evenodd" stroke="white" stroke-width="1.33333" d="M 63.9987,19.0013 C 88.852,19.0013 108.999,39.148 108.999,64.0013 C 108.999,88.8547 88.852,109.001 63.9987,109.001 C 39.1453,109.001 18.9987,88.8547 18.9987,64.0013 C 18.9987,39.148 39.1453,19.0013 63.9987,19.0013 Z "/>
			<path id="dp_path003" fill="#fefefe" fill-rule="evenodd" d="M 67.092,48.1107 L 67.084,42.648 L 63.8533,42.648 C 62.076,42.648 60.54,42.7333 60.4387,42.8387 C 60.0267,43.272 60.0467,44.1067 59.9347,44.6787 C 59.1187,48.8627 56.76,52.1987 52.8773,54.0773 C 51.0053,54.984 51.868,58.8093 51.8667,60.7813 C 53.5667,60.7867 55.2653,60.7933 56.9653,60.7987 L 57.016,68.4587 L 57.0667,76.12 L 57.4867,77.6293 C 59.768,85.8227 69.26,87.0147 76.0347,83.524 C 77.1347,82.0213 74.9947,78.4733 74.4853,76.9947 L 72.7853,77.3227 L 71.0853,77.6507 C 69.4547,77.6053 68.408,77.1987 67.3227,75.9893 C 65.7627,71.448 66.732,65.564 66.724,60.7907 C 69.376,60.7867 72.028,60.7827 74.68,60.7787 C 74.668,58.384 74.656,55.988 74.6427,53.592 C 72.128,53.5853 69.612,53.58 67.0973,53.5733 Z "/>
		</g>
	</g>
</svg>